<?xml version="1.0" encoding="UTF-8"?>
<svg viewBox="0 0 218 176" xmlns="http://www.w3.org/2000/svg">
<circle cx="108.8" cy="88" r="80.5" fill="#fff" stroke="#F1F2F3" stroke-width="15"/>
<path d="m80.15 106.34c2.6555-2.656 6.961-2.656 9.6166 0s2.6556 6.961 0 9.617l-23.759 23.758c-2.6555 2.656-6.9611 2.656-9.6166 0-2.6556-2.655-2.6556-6.961 0-9.616l23.759-23.759z" fill="#FB80BA"/>
<path d="m56.958 123.31c-2.6556-2.655-2.6556-6.961 0-9.616 2.6556-2.656 6.9611-2.656 9.6166 0l15.839 15.839c2.6556 2.656 2.6556 6.961 0 9.617-2.6555 2.655-6.9611 2.655-9.6166 0l-15.839-15.84z" fill="#FB80BA"/>
<path d="m139.64 56.841c-13.2-13.2-34.601-13.2-47.801 0-13.2 13.2-13.2 34.601 0 47.801 13.2 13.199 34.601 13.199 47.801 0 13.199-13.2 13.199-34.601 0-47.801zm-57.135-9.3338c18.355-18.355 48.114-18.355 66.468 0 18.355 18.355 18.355 48.113 0 66.468-18.354 18.355-48.113 18.355-66.468 0-18.355-18.354-18.355-48.113 0-66.468z" clip-rule="evenodd" fill="#FB80BA" fill-rule="evenodd"/>
<path d="m56.958 123.31c-2.6556-2.655-2.6556-6.961 0-9.616 2.6556-2.656 6.9611-2.656 9.6166 0l3.1113 3.111c2.6556 2.655 2.6556 6.961 0 9.617-2.6556 2.655-6.9611 2.655-9.6166 0l-3.1113-3.112z" fill="#fff" fill-opacity=".25"/>
<path d="m139.41 56.7c-13.2-13.2-34.601-13.2-47.801 0-12.154 12.154-13.119 31.271-2.8858 44.522 2.2279 2.885 1.6953 7.029-1.1896 9.257-2.885 2.228-7.0298 1.696-9.2577-1.189-14.239-18.439-12.91-45.015 3.9992-61.924 18.354-18.355 48.114-18.355 66.468 0 18.354 18.355 18.354 48.113 0 66.468-2.578 2.577-6.757 2.577-9.334 0-2.578-2.577-2.578-6.756 0-9.334 13.199-13.2 13.199-34.6 0-47.8z" clip-rule="evenodd" fill="#fff" fill-opacity=".25" fill-rule="evenodd"/>
<path d="m140.94 81.711c0 2.8719-3.045 5.2-6.8 5.2-3.756 0-6.8-2.3281-6.8-5.2s3.044-5.2 6.8-5.2c3.755 0 6.8 2.3281 6.8 5.2z" fill="#FFA1AC"/>
<path d="m104.54 81.711c0 2.8719-3.045 5.2-6.8005 5.2s-6.8-2.3281-6.8-5.2 3.0445-5.2 6.8-5.2 6.8005 2.3281 6.8005 5.2z" fill="#FFA1AC"/>
<path d="m110.75 75.461c0.58-0.5917 1.53-0.6013 2.121-0.0215 0.741 0.7261 1.752 1.1714 2.87 1.1714 1.117 0 2.128-0.4453 2.869-1.1714 0.592-0.5798 1.541-0.5702 2.121 0.0215s0.57 1.5414-0.021 2.1212c-1.279 1.2534-3.035 2.0287-4.969 2.0287s-3.69-0.7753-4.969-2.0287c-0.592-0.5798-0.602-1.5295-0.022-2.1212z" clip-rule="evenodd" fill="#423E4F" fill-rule="evenodd"/>
<path d="m130.74 75.211c-1 0-1.5 0.6835-1.5 1.1666 0 0.8285-0.672 1.5-1.5 1.5-0.829 0-1.5-0.6715-1.5-1.5 0-2.4624 2.185-4.1666 4.5-4.1666 2.314 0 4.5 1.7042 4.5 4.1666 0 0.8285-0.672 1.5-1.5 1.5-0.829 0-1.5-0.6715-1.5-1.5 0-0.4831-0.501-1.1666-1.5-1.1666z" clip-rule="evenodd" fill="#423E4F" fill-rule="evenodd"/>
<path d="m100.14 73.711c0-0.8837 0.716-1.6 1.6-1.6 0.883 0 1.6 0.7163 1.6 1.6v2.8c0 0.8836-0.717 1.6-1.6 1.6-0.884 0-1.6-0.7164-1.6-1.6v-2.8z" fill="#423E4F"/>
<path d="m5.9646 138.4l0.80041 5.885-2.765 5.257 5.8852-0.801 5.2566 2.765-0.8004-5.885 2.765-5.256-5.8852 0.8-5.2566-2.765zm2.4077 3.233l5.5152 0.972-0.9725 5.515-5.5152-0.972 0.97246-5.515z" clip-rule="evenodd" fill="#FFE082" fill-rule="evenodd"/>
<path d="m205.9 107.2l-9.199 4.839-10.299-1.401 4.839 9.199-1.401 10.299 9.199-4.838 10.299 1.4-4.839-9.199 1.401-10.299zm-3.875 5.894l1.702 9.652-9.651 1.702-1.702-9.652 9.651-1.702z" clip-rule="evenodd" fill="#FFE082" fill-rule="evenodd"/>
<path d="m8.3564 32.8l-3.9424 2.0738-4.4139-0.6003 2.0738 3.9424-0.60031 4.414 3.9424-2.0738 4.4139 0.6003-2.0738-3.9424 0.60031-4.414zm-1.6606 2.5261l0.72935 4.1364-4.1364 0.7293-0.72937-4.1363 4.1364-0.7294z" clip-rule="evenodd" fill="#FFE082" fill-rule="evenodd"/>
<path d="m209.6 18.4l-2.72 5.28-5.28 2.72 5.28 2.72 2.72 5.28 2.72-5.28 5.28-2.72-5.28-2.72-2.72-5.28zm0.118 4.0289l3.96 3.9601-3.96 3.9599-3.96-3.9599 3.96-3.9601z" clip-rule="evenodd" fill="#FFE082" fill-rule="evenodd"/>
<path d="m10.803 78.37c0.5067-0.1037 1.064-0.1942 1.6546-0.2918l0.0051 3e-3c2.0768-0.3391 4.4293-0.7213 6.0384-1.8776 0.5192-0.364 0.9549-0.8343 1.278-1.3808 0.2162-0.3726 0.3557-0.7847 0.4105-1.212 0.0547-0.4274 0.0234-0.8613-0.0919-1.2764s-0.3124-0.8029-0.5797-1.1408c-0.2672-0.3379-0.5993-0.6189-0.9768-0.8267-0.614-0.3532-1.3166-0.5225-2.0241-0.4876-0.3115 0.0162-0.6191 0.0758-0.9141 0.1768-0.0618-0.3058-0.1639-0.6017-0.3044-0.8803-0.3233-0.6301-0.8211-1.1539-1.4339-1.5089-0.3686-0.223-0.7781-0.37-1.2043-0.4326-0.4263-0.0625-0.8607-0.0393-1.2778 0.0684-0.4172 0.1077-0.8086 0.2976-1.1513 0.5587-0.34273 0.261-0.62984 0.5879-0.84447 0.9614-0.31235 0.5533-0.50271 1.1669-0.55829 1.7998-0.19684 1.9718 0.64819 4.1993 1.3942 6.1653l0.0028 0.0071c0.2124 0.5585 0.4122 1.086 0.5746 1.5788l0.0029-0.0038zm7.1382-6.9639c0.4876 0.2734 0.8474 0.7282 1.0015 1.2655 0.0719 0.259 0.0909 0.5297 0.0561 0.7962s-0.1229 0.5232-0.2589 0.755c-0.2367 0.3968-0.5557 0.7392-0.9344 1.0041-0.723 0.4824-1.5254 0.8334-2.3703 1.037-0.8149 0.2223-1.6977 0.3833-2.4542 0.5105-0.2094 0.035-0.4219 0.0696-0.6345 0.1041l-0.1338 0.0218c-0.2042 0.0332-0.4154 0.0678-0.6207 0.1031l-0.0032-0.0101-0.0016-0.0044-0.0031-0.0018-0.0026-0.0064-0.0052-3e-3 -0.0048-0.0132-0.0114-0.0294-0.0019-0.0052-0.0033-0.0075-0.0031-0.0018-0.0023-0.0069-0.229-0.6089c-0.0773-0.2032-0.1537-0.4046-0.228-0.6034-0.2682-0.7188-0.571-1.5635-0.7844-2.3831-0.2464-0.8332-0.34369-1.7035-0.2874-2.5706 0.0387-0.4654 0.1766-0.9179 0.4048-1.3252 0.133-0.2326 0.3113-0.4363 0.5243-0.5989s0.4564-0.2809 0.7159-0.3478c0.5425-0.1372 1.1173-0.0544 1.599 0.2303 0.2938 0.1664 0.5491 0.393 0.7491 0.665s0.3401 0.5832 0.4113 0.9133l0.2626 1.3571 1.3066-0.4511c0.3214-0.1035 0.661-0.1377 0.9966-0.1005 0.3355 0.0372 0.6594 0.145 0.9503 0.3162z" fill="#FB80BA"/>
<path d="m43.75 34.893c0.2181-0.6543 0.4852-1.3581 0.7661-2.105l7e-3 -4e-3c0.993-2.6241 2.12-5.5953 1.8575-8.2243-0.0742-0.8421-0.3268-1.6588-0.7424-2.3962-0.2861-0.498-0.6689-0.9339-1.1259-1.282-0.457-0.348-0.9788-0.6013-1.535-0.7448-0.5562-0.1436-1.1355-0.1746-1.7038-0.0912s-1.1143 0.2795-1.6058 0.5768c-0.8172 0.4735-1.481 1.172-1.9125 2.0122-0.1888 0.3705-0.3252 0.7654-0.4052 1.1734-0.3943-0.1326-0.8041-0.2119-1.2194-0.2354-0.9431-0.0467-1.8798 0.1788-2.6982 0.6498-0.5033 0.277-0.9461 0.6517-1.3024 1.1022-0.3564 0.4505-0.6192 0.9677-0.773 1.5211-0.1537 0.5535-0.1953 1.1321-0.1224 1.7018 0.073 0.5698 0.259 1.1192 0.5472 1.6161 0.4306 0.7295 1.0123 1.3584 1.7061 1.8445 2.1455 1.5418 5.281 2.0511 8.0484 2.5004l0.0101 0.0015c0.7865 0.127 1.5289 0.248 2.2061 0.3891l-0.0025-6e-3zm-3.2823-12.885c0.6407-0.3807 1.4058-0.493 2.1289-0.3127 0.3469 0.0896 0.6723 0.2481 0.9568 0.466s0.5222 0.4907 0.6992 0.8023c0.3004 0.5379 0.4831 1.1344 0.5365 1.7484 0.075 1.1564-0.0546 2.3169-0.3828 3.4283-0.2865 1.0892-0.6892 2.2158-1.0467 3.1742-0.0991 0.2651-0.2009 0.5336-0.3027 0.802l-0.0641 0.1691c-0.0978 0.2578-0.1986 0.5248-0.2948 0.7854l-0.0138-0.0031-0.0061-0.0011-0.0042 0.0024-9e-3 -0.0012-0.0069 4e-3 -0.0185-0.0032-0.0416-0.0065-0.0073-0.0013-0.0108-0.0012-0.0041 0.0024-0.0095-0.0019-0.8558-0.1415c-0.2862-0.0462-0.5697-0.0923-0.8488-0.139-1.0087-0.1695-2.186-0.3831-3.2746-0.683-1.1265-0.271-2.1962-0.7388-3.1599-1.382-0.5117-0.3549-0.9422-0.8158-1.2603-1.3508-0.18-0.3087-0.2963-0.6503-0.3421-1.0046-0.0457-0.3544-0.02-0.7143 0.0756-1.0586 0.2033-0.7179 0.6821-1.3263 1.3321-1.6928 0.3879-0.2284 0.8197-0.3721 1.2671-0.4217 0.4474-0.0495 0.9003-0.0039 1.3288 0.134l1.7421 0.6015 0.3502-1.8095c0.0948-0.44 0.2817-0.855 0.5484-1.2177 0.2666-0.3627 0.607-0.6648 0.9987-0.8866z" fill="#4AC989"/>
<path d="m200 80.001c0.774-0.6864 1.649-1.4003 2.574-2.1599h0.012c3.258-2.664 6.95-5.6784 8.581-9.2904 0.535-1.1496 0.82-2.4 0.833-3.6696 2e-3 -0.8617-0.169-1.7149-0.501-2.5098-0.333-0.7949-0.821-1.5153-1.436-2.1189-0.614-0.6037-1.344-1.0784-2.144-1.3963-0.801-0.3179-1.658-0.4726-2.519-0.455-1.417 0.0022-2.803 0.4117-3.994 1.1796-0.523 0.3395-0.996 0.7503-1.406 1.2204-0.413-0.468-0.886-0.8784-1.408-1.2204-1.19-0.7681-2.576-1.1776-3.992-1.1796-0.861-0.0176-1.718 0.1371-2.519 0.455-0.8 0.3179-1.53 0.7926-2.144 1.3963-0.615 0.6036-1.103 1.324-1.436 2.1189-0.332 0.7949-0.503 1.6481-0.501 2.5098 0.012 1.2705 0.296 2.5238 0.833 3.6756 1.631 3.612 5.322 6.6252 8.58 9.2844l0.012 0.0096c0.926 0.7547 1.8 1.4687 2.574 2.1599l1e-3 -0.0096zm5.4-19.2c1.118-0.014 2.196 0.4138 3 1.1904 0.383 0.3766 0.687 0.8265 0.893 1.3229 0.207 0.4964 0.311 1.0292 0.307 1.5667-0.013 0.924-0.223 1.836-0.614 2.6736-0.77 1.5584-1.809 2.9688-3.069 4.1664-1.189 1.2-2.557 2.3616-3.74 3.3384-0.328 0.27-0.661 0.5424-0.995 0.8148l-0.21 0.1716c-0.32 0.2616-0.652 0.5328-0.972 0.7992l-0.016-0.0145-7e-3 -0.0059h-7e-3l-0.011-0.0084h-0.012l-0.021-0.0181-0.05-0.0395-8e-3 -0.0072-0.013-0.0096h-7e-3l-0.011-0.0097-0.797-0.6539-0.209-0.1717c-0.337-0.2747-0.671-0.5471-0.998-0.8171-1.183-0.9768-2.553-2.1372-3.742-3.3432-1.26-1.1969-2.299-2.607-3.068-4.1652-0.399-0.8448-0.612-1.7664-0.624-2.7-3e-3 -0.536 0.103-1.067 0.309-1.5616 0.206-0.4947 0.51-0.943 0.892-1.3184 0.803-0.7801 1.881-1.2115 3-1.2 0.675-0.0058 1.344 0.1314 1.962 0.4026 0.619 0.2711 1.173 0.6701 1.626 1.1706l1.812 2.088 1.812-2.088c0.453-0.5005 1.007-0.8995 1.626-1.1706 0.618-0.2712 1.287-0.4084 1.962-0.4026z" fill="#A28EEC"/>
<path d="m171.47 19.693c0.676-0.1383 1.419-0.2589 2.206-0.3891l7e-3 4e-3c2.769-0.4521 5.906-0.9616 8.051-2.5034 0.692-0.4853 1.273-1.1124 1.704-1.8411 0.288-0.4968 0.474-1.0463 0.547-1.616 0.073-0.5698 0.032-1.1484-0.122-1.7018-0.154-0.5535-0.417-1.0707-0.773-1.5211-0.356-0.45054-0.799-0.82528-1.302-1.1023-0.819-0.47096-1.756-0.69664-2.699-0.65016-0.415 0.02166-0.826 0.10102-1.219 0.2358-0.082-0.4078-0.219-0.80235-0.406-1.1738-0.431-0.84013-1.095-1.5385-1.912-2.0118-0.491-0.2973-1.037-0.49341-1.605-0.5768-0.569-0.08339-1.148-0.05239-1.704 0.09118-0.556 0.14358-1.078 0.39683-1.535 0.74489s-0.84 0.78391-1.126 1.282c-0.417 0.73764-0.671 1.5559-0.745 2.3997-0.262 2.6289 0.865 5.599 1.859 8.2203l4e-3 0.0095c0.283 0.7446 0.55 1.4481 0.766 2.1051l4e-3 -0.0051zm9.518-9.2851c0.65 0.3645 1.13 0.9708 1.335 1.6872 0.096 0.3453 0.121 0.7063 0.075 1.0617-0.047 0.3553-0.164 0.6976-0.345 1.0066-0.316 0.5291-0.741 0.9857-1.246 1.3389-0.964 0.6431-2.034 1.1112-3.161 1.3826-1.086 0.2964-2.263 0.5111-3.272 0.6806-0.279 0.0467-0.563 0.0928-0.846 0.1389l-0.178 0.029c-0.273 0.0443-0.554 0.0905-0.828 0.1375l-4e-3 -0.0136-2e-3 -0.0058-5e-3 -0.0024-3e-3 -0.0085-7e-3 -4e-3 -6e-3 -0.0176-0.016-0.0392-2e-3 -7e-3 -4e-3 -0.0099-5e-3 -0.0024-3e-3 -0.0092-0.305-0.8118c-0.103-0.2711-0.205-0.5395-0.304-0.8046-0.358-0.9584-0.761-2.0847-1.046-3.1774-0.328-1.1111-0.458-2.2714-0.383-3.4276 0.052-0.62055 0.235-1.2238 0.54-1.7668 0.177-0.31021 0.415-0.58173 0.699-0.79855s0.608-0.37453 0.954-0.46382c0.724-0.18288 1.49-0.07246 2.132 0.30718 0.392 0.22175 0.732 0.52389 0.999 0.88657 0.267 0.36267 0.454 0.77767 0.548 1.2177l0.351 1.8096 1.742-0.6015c0.428-0.13794 0.881-0.1836 1.328-0.13401 0.448 0.04961 0.88 0.19331 1.268 0.42171z" fill="#FB80BA"/>
</svg>
