<?xml version="1.0" encoding="UTF-8"?>
<svg fill="none" viewBox="0 0 20 20" xmlns="http://www.w3.org/2000/svg">
<path d="m11.251 2c-2.5207 0-4.4321 0.59269-5.7158 1.8049-1.2823 1.2122-1.8475 2.9792-1.8475 5.0708v0.62294c-0.39329 0.37404-0.68757 0.85534-0.68757 1.4397 0 0.8664 0.61194 1.4811 1.3751 1.7836 0.25441 0.8024 0.5315 1.6454 0.83884 2.3632 0.33348 0.7852 0.63532 1.4081 1.052 1.8496 0.46255 0.494 1.0216 0.8878 1.6425 1.157 0.62091 0.2693 1.2905 0.4082 1.9672 0.4082 0.67678 0 1.3464-0.1389 1.9673-0.4082 0.6209-0.2692 1.1799-0.663 1.6425-1.157 0.4166-0.4415 0.6965-1.0644 1.0313-1.8496 0.3067-0.7178 0.6051-1.5608 0.8595-2.3625 0.7632-0.3025 1.3751-0.9172 1.3751-1.7836 0-0.5817-0.2956-1.0636-0.6875-1.4398v-0.62363c0-1.9417-0.4421-3.3237-1.2239-4.2327-0.6642-0.77008-1.5505-1.0864-2.4285-1.1826l-0.5377-1.0726-0.1925-0.38779h-0.4304zm-0.4085 1.4185l0.4731 0.94541c0.229 0.45793 0.3183 0.78384 0.3218 0.92341 0.0041 0.14027 0.0089 0.08251-0.0206 0.10864-0.0599 0.05019-0.6395 0.1994-1.3546 0.23584-0.71504 0.03713-1.5566 0.01925-2.3418 0.32316-0.78383 0.3039-1.4735 1.1187-1.4824 2.2346h1.3752c0.0055-0.67795 0.16295-0.77559 0.60162-0.94542s1.195-0.22002 1.9342-0.25784c0.7384-0.03781 1.5009 0.00688 2.1486-0.5363 0.3232-0.27297 0.5295-0.74258 0.5157-1.2032-0.0034-0.10176-0.0275-0.1994-0.0433-0.30254 0.3151 0.13504 0.5947 0.34119 0.8168 0.60232 0.4985 0.57893 0.9021 1.5979 0.9021 3.3292v1.2679l0.3438 0.1925c0.209 0.1217 0.3438 0.3411 0.3438 0.6023 4e-3 0.1726-0.0584 0.3402-0.1743 0.4681-0.1159 0.128-0.2765 0.2065-0.4486 0.2195l-0.4731 0.0206-0.1286 0.4518c-0.2531 0.8237-0.5473 1.6342-0.8814 2.4285-0.3094 0.7261-0.6649 1.3449-0.7736 1.4604-1.4645 1.547-3.7795 1.547-5.2427 0-0.11001-0.1155-0.46411-0.7343-0.77421-1.4611-0.33337-0.7944-0.62709-1.6049-0.88009-2.4285l-0.12926-0.4517-0.47305-0.0207c-0.17191-0.0131-0.33223-0.0917-0.44798-0.2194-0.11575-0.1278-0.17812-0.2951-0.17428-0.4675 0-0.2571 0.13271-0.4799 0.34379-0.6016l0.34379-0.1925v-1.2686c0-1.8544 0.4703-3.1876 1.4185-4.0828 0.88009-0.83196 2.3171-1.3064 4.3612-1.3752v6.9e-4zm-3.0294 6.8324c-0.18236 0-0.35725 0.0724-0.48619 0.2014-0.12895 0.1289-0.20139 0.3038-0.20139 0.4861 0 0.1824 0.07244 0.3573 0.20139 0.4862 0.12894 0.129 0.30383 0.2014 0.48619 0.2014 0.18235 0 0.35724-0.0724 0.48618-0.2014 0.12895-0.1289 0.20139-0.3038 0.20139-0.4862 0-0.1823-0.07244-0.3572-0.20139-0.4861-0.12894-0.129-0.30383-0.2014-0.48618-0.2014zm4.1254 0c-0.1823 0-0.3572 0.0724-0.4861 0.2014-0.129 0.1289-0.2014 0.3038-0.2014 0.4861 0 0.1824 0.0724 0.3573 0.2014 0.4862 0.1289 0.129 0.3038 0.2014 0.4861 0.2014 0.1824 0 0.3573-0.0724 0.4862-0.2014 0.129-0.1289 0.2014-0.3038 0.2014-0.4862 0-0.1823-0.0724-0.3572-0.2014-0.4861-0.1289-0.129-0.3038-0.2014-0.4862-0.2014z" fill="#8D8D8D"/>
</svg>
