<?xml version="1.0" encoding="UTF-8"?>
<svg fill="none" viewBox="0 0 20 20" xmlns="http://www.w3.org/2000/svg">
<path d="m11.17 2c-2.3789 0-5.0285 0.40464-6.9984 2.5877-1.967 2.183-3.1716 5.9659-3.1716 12.532v0.72h6.2323c0.7128 0.45 1.5142 0.72 2.4077 0.72 0.8928 0 1.6956-0.2758 2.4077-0.72h6.9523v-0.72c0-5.85-1.1304-9.2477-2.61-11.228-1.3032-1.7424-2.8022-2.2277-3.9154-2.34l-0.6746-1.1923-0.2016-0.36h-0.4284zm-0.4054 1.4854l0.5854 1.0346 0.2016 0.36h0.4284c0.7272 0 2.0506 0.2448 3.2616 1.8677 1.1563 1.5451 2.1744 4.4899 2.2738 9.6523h-3.87c0.0792-0.1008 0.1512-0.2102 0.2253-0.3154 0.9771-1.3946 1.5293-3.1356 1.5293-4.7246h-1.44c0 1.2398-0.4637 2.7554-1.26 3.8923-0.7963 1.1376-1.8612 1.8677-3.06 1.8677-1.1974 0-2.263-0.7272-3.06-1.8677-0.79704-1.139-1.26-2.6611-1.26-3.8923 0-0.3197 0.0612-0.4802 0.1584-0.6077 0.09504-0.1274 0.26208-0.2376 0.51624-0.3369 0.50904-0.2016 1.368-0.2844 2.273-0.36 0.90576-0.07636 1.8504-0.14836 2.7-0.54004 0.8496-0.3924 1.5523-1.2802 1.5523-2.4754h-1.44c0 0.75168-0.1973 0.93888-0.6984 1.17-0.49968 0.2304-1.355 0.32976-2.2493 0.40536-0.89424 0.07488-1.836 0.11736-2.6784 0.44928-0.41976 0.1656-0.82656 0.41616-1.1232 0.81072-0.29952 0.39384-0.45072 0.92164-0.45072 1.4846 0 1.5826 0.55296 3.3048 1.53 4.7016 0.0792 0.1152 0.162 0.229 0.24768 0.3384h-3.1745c0.0972-5.8774 1.2312-9.1411 2.7677-10.845 1.5034-1.6661 3.4438-2.0268 5.5123-2.0693h0.0014zm-3.2846 7.8746c-0.19096 0-0.37409 0.0759-0.50912 0.2109-0.13502 0.135-0.21088 0.3181-0.21088 0.5091s0.07586 0.3741 0.21088 0.5091c0.13503 0.135 0.31816 0.2109 0.50912 0.2109s0.37409-0.0759 0.50912-0.2109c0.13502-0.135 0.21088-0.3181 0.21088-0.5091s-0.07586-0.3741-0.21088-0.5091c-0.13503-0.135-0.31816-0.2109-0.50912-0.2109zm4.32 0c-0.191 0-0.3741 0.0759-0.5091 0.2109s-0.2109 0.3181-0.2109 0.5091 0.0759 0.3741 0.2109 0.5091 0.3181 0.2109 0.5091 0.2109 0.3741-0.0759 0.5091-0.2109 0.2109-0.3181 0.2109-0.5091-0.0759-0.3741-0.2109-0.5091-0.3181-0.2109-0.5091-0.2109z" fill="#8D8D8D"/>
</svg>
